# xmcd
#
# Track frame offsets:
#  150
#  18817
#  34987
#  76206
#  109765
#  143237
#
# Disc length: 2178 seconds
#
# Revision: 0
# Processed by: cddbd v1.4PL0 Copyright (c) Steve Scherf et al.
# Submitted via: FCDBAsst 2.0
#
DISCID=42088006
DTITLE=The Healers - The Healers
DYEAR=1900
DGENRE=
TTITLE0=Boot Hill
TTITLE1=Honey Hush
TTITLE2=Livin' On A Poor Man's Pay
TTITLE3=Voodoo Chile (Slight Return)
TTITLE4=Hoochie Coochie Man
TTITLE5=Big Boss Man
EXTD=
EXTT0=
EXTT1=
EXTT2=
EXTT3=
EXTT4=
EXTT5=
PLAYORDER=
